<?xml version="1.0" encoding="UTF-8" standalone="no"?>
<svg
   xmlns:dc="http://purl.org/dc/elements/1.1/"
   xmlns:cc="http://creativecommons.org/ns#"
   xmlns:rdf="http://www.w3.org/1999/02/22-rdf-syntax-ns#"
   xmlns:svg="http://www.w3.org/2000/svg"
   xmlns="http://www.w3.org/2000/svg"
   xmlns:xlink="http://www.w3.org/1999/xlink"
   xmlns:sodipodi="http://sodipodi.sourceforge.net/DTD/sodipodi-0.dtd"
   xmlns:inkscape="http://www.inkscape.org/namespaces/inkscape"
   version="1.1"
   x="0px"
   y="0px"
   viewBox="0 0 565.83002 54"
   enable-background="new 0 0 612 100"
   xml:space="preserve"
   id="svg68"
   sodipodi:docname="signaling-logo.svg"
   inkscape:version="1.0.1 (c497b03c, 2020-09-10)"><metadata
   id="metadata74"><rdf:RDF><cc:Work
       rdf:about=""><dc:format>image/svg+xml</dc:format><dc:type
         rdf:resource="http://purl.org/dc/dcmitype/StillImage" /></cc:Work></rdf:RDF></metadata><defs
   id="defs72"><linearGradient
     id="linearGradient-1"
     y2="100%"
     x2="50%"
     y1="0%"
     x1="50%"><stop
       id="stop1221"
       offset="0%"
       stop-opacity="0.984101836"
       stop-color="#363E62" /><stop
       id="stop1223"
       offset="100%"
       stop-color="#191D33" /></linearGradient><linearGradient
     id="linearGradient-2"
     y2="229.471409%"
     x2="50%"
     y1="0%"
     x1="50%"><stop
       id="stop1226"
       offset="0%"
       stop-opacity="0.984101836"
       stop-color="#363E62" /><stop
       id="stop1228"
       offset="100%"
       stop-color="#191D33" /></linearGradient><circle
     r="31.8545455"
     cy="31.8545455"
     cx="31.8545455"
     id="path-3" /><filter
     id="filter-4"
     filterUnits="objectBoundingBox"
     height="109.4%"
     width="109.4%"
     y="-4.7%"
     x="-4.7%"><feMorphology
       id="feMorphology1232"
       result="shadowSpreadInner1"
       in="SourceAlpha"
       operator="erode"
       radius="2" /><feGaussianBlur
       id="feGaussianBlur1234"
       result="shadowBlurInner1"
       in="shadowSpreadInner1"
       stdDeviation="1.5" /><feOffset
       id="feOffset1236"
       result="shadowOffsetInner1"
       in="shadowBlurInner1"
       dy="1"
       dx="0" /><feComposite
       id="feComposite1238"
       result="shadowInnerInner1"
       k3="1"
       k2="-1"
       operator="arithmetic"
       in2="SourceAlpha"
       in="shadowOffsetInner1" /><feColorMatrix
       id="feColorMatrix1240"
       in="shadowInnerInner1"
       type="matrix"
       values="0 0 0 0 0   0 0 0 0 0   0 0 0 0 0  0 0 0 0 0" /></filter><radialGradient
     id="radialGradient-5"
     gradientTransform="translate(0.580061,-0.128060),scale(1.000000,0.947368),rotate(74.471666),translate(-0.580061,0.128060)"
     r="186.554671%"
     fy="-12.8060408%"
     fx="58.0060992%"
     cy="-12.8060408%"
     cx="58.0060992%"><stop
       id="stop1243"
       offset="0%"
       stop-color="#22B6D6" /><stop
       id="stop1245"
       offset="42.3669764%"
       stop-opacity="0.701486014"
       stop-color="#22B6D6" /><stop
       id="stop1247"
       offset="100%"
       stop-color="#22B6D6" /></radialGradient><linearGradient
     id="linearGradient-6"
     y2="150.305489%"
     x2="147.027545%"
     y1="-37.1054293%"
     x1="-6.10668444%"><stop
       id="stop1250"
       offset="0%"
       stop-color="#FFFFFF" /><stop
       id="stop1252"
       offset="100%"
       stop-color="#000000" /></linearGradient><path
     id="path-7"
     d="M17.4545455,34.9090909 C26.1304368,34.9090909 33.1636364,28.0960711 33.1636364,19.6917852 C33.1636364,11.2874994 28.9033537,1.74545455 17.4545455,1.74545455 C6.00573725,1.74545455 1.74545455,11.2874994 1.74545455,19.6917852 C1.74545455,28.0960711 8.77865411,34.9090909 17.4545455,34.9090909 Z" /><filter
     id="filter-8"
     filterUnits="objectBoundingBox"
     height="163.3%"
     width="166.8%"
     y="-31.7%"
     x="-33.4%"><feMorphology
       id="feMorphology1256"
       result="shadowSpreadOuter1"
       in="SourceAlpha"
       operator="dilate"
       radius="1" /><feOffset
       id="feOffset1258"
       result="shadowOffsetOuter1"
       in="shadowSpreadOuter1"
       dy="0"
       dx="0" /><feGaussianBlur
       id="feGaussianBlur1260"
       result="shadowBlurOuter1"
       in="shadowOffsetOuter1"
       stdDeviation="2.5" /><feColorMatrix
       id="feColorMatrix1262"
       in="shadowBlurOuter1"
       type="matrix"
       values="0 0 0 0 0   0 0 0 0 0   0 0 0 0 0  0 0 0 0.0853911713 0" /></filter><circle
     r="31.8545455"
     cy="31.8545455"
     cx="31.8545455"
     id="path-9" /><filter
     id="filter-10"
     filterUnits="objectBoundingBox"
     height="109.4%"
     width="109.4%"
     y="-4.7%"
     x="-4.7%"><feMorphology
       id="feMorphology1266"
       result="shadowSpreadInner1"
       in="SourceAlpha"
       operator="erode"
       radius="2" /><feGaussianBlur
       id="feGaussianBlur1268"
       result="shadowBlurInner1"
       in="shadowSpreadInner1"
       stdDeviation="1.5" /><feOffset
       id="feOffset1270"
       result="shadowOffsetInner1"
       in="shadowBlurInner1"
       dy="1"
       dx="0" /><feComposite
       id="feComposite1272"
       result="shadowInnerInner1"
       k3="1"
       k2="-1"
       operator="arithmetic"
       in2="SourceAlpha"
       in="shadowOffsetInner1" /><feColorMatrix
       id="feColorMatrix1274"
       in="shadowInnerInner1"
       type="matrix"
       values="0 0 0 0 0   0 0 0 0 0   0 0 0 0 0  0 0 0 0 0" /></filter><path
     id="path-11"
     d="M17.4545455,34.9090909 C26.1304368,34.9090909 33.1636364,28.0960711 33.1636364,19.6917852 C33.1636364,11.2874994 28.9033537,1.74545455 17.4545455,1.74545455 C6.00573725,1.74545455 1.74545455,11.2874994 1.74545455,19.6917852 C1.74545455,28.0960711 8.77865411,34.9090909 17.4545455,34.9090909 Z" /><filter
     id="filter-12"
     filterUnits="objectBoundingBox"
     height="163.3%"
     width="166.8%"
     y="-31.7%"
     x="-33.4%"><feMorphology
       id="feMorphology1278"
       result="shadowSpreadOuter1"
       in="SourceAlpha"
       operator="dilate"
       radius="1" /><feOffset
       id="feOffset1280"
       result="shadowOffsetOuter1"
       in="shadowSpreadOuter1"
       dy="0"
       dx="0" /><feGaussianBlur
       id="feGaussianBlur1282"
       result="shadowBlurOuter1"
       in="shadowOffsetOuter1"
       stdDeviation="2.5" /><feColorMatrix
       id="feColorMatrix1284"
       in="shadowBlurOuter1"
       type="matrix"
       values="0 0 0 0 0   0 0 0 0 0   0 0 0 0 0  0 0 0 0.0853911713 0" /></filter><filter
     id="filter-13"
     filterUnits="objectBoundingBox"
     height="129.2%"
     width="129.2%"
     y="-14.6%"
     x="-14.6%"><feGaussianBlur
       id="feGaussianBlur1287"
       in="SourceGraphic"
       stdDeviation="0.840648649" /></filter><filter
     id="filter-14"
     filterUnits="objectBoundingBox"
     height="129.2%"
     width="129.2%"
     y="-14.6%"
     x="-14.6%"><feGaussianBlur
       id="feGaussianBlur1290"
       in="SourceGraphic"
       stdDeviation="0.840648649" /></filter><filter
     id="filter-15"
     filterUnits="objectBoundingBox"
     height="129.2%"
     width="129.2%"
     y="-14.6%"
     x="-14.6%"><feGaussianBlur
       id="feGaussianBlur1293"
       in="SourceGraphic"
       stdDeviation="0.840648649" /></filter><filter
     id="filter-16"
     filterUnits="objectBoundingBox"
     height="143.8%"
     width="143.8%"
     y="-21.9%"
     x="-21.9%"><feGaussianBlur
       id="feGaussianBlur1296"
       in="SourceGraphic"
       stdDeviation="1.26097297" /></filter><filter
     id="filter-17"
     filterUnits="objectBoundingBox"
     height="143.8%"
     width="143.8%"
     y="-21.9%"
     x="-21.9%"><feGaussianBlur
       id="feGaussianBlur1299"
       in="SourceGraphic"
       stdDeviation="1.26097297" /></filter><filter
     id="filter-18"
     filterUnits="objectBoundingBox"
     height="143.8%"
     width="143.8%"
     y="-21.9%"
     x="-21.9%"><feGaussianBlur
       id="feGaussianBlur1302"
       in="SourceGraphic"
       stdDeviation="1.26097297" /></filter><filter
     id="filter-19"
     filterUnits="objectBoundingBox"
     height="143.8%"
     width="143.8%"
     y="-21.9%"
     x="-21.9%"><feGaussianBlur
       id="feGaussianBlur1305"
       in="SourceGraphic"
       stdDeviation="1.26097297" /></filter><filter
     id="filter-20"
     filterUnits="objectBoundingBox"
     height="143.8%"
     width="143.8%"
     y="-21.9%"
     x="-21.9%"><feGaussianBlur
       id="feGaussianBlur1308"
       in="SourceGraphic"
       stdDeviation="1.26097297" /></filter><filter
     id="filter-21"
     filterUnits="objectBoundingBox"
     height="129.2%"
     width="129.2%"
     y="-14.6%"
     x="-14.6%"><feGaussianBlur
       id="feGaussianBlur1311"
       in="SourceGraphic"
       stdDeviation="0.840648649" /></filter><filter
     id="filter-22"
     filterUnits="objectBoundingBox"
     height="129.2%"
     width="129.2%"
     y="-14.6%"
     x="-14.6%"><feGaussianBlur
       id="feGaussianBlur1314"
       in="SourceGraphic"
       stdDeviation="0.840648649" /></filter><filter
     id="filter-23"
     filterUnits="objectBoundingBox"
     height="129.2%"
     width="129.2%"
     y="-14.6%"
     x="-14.6%"><feGaussianBlur
       id="feGaussianBlur1317"
       in="SourceGraphic"
       stdDeviation="0.840648649" /></filter><filter
     id="filter-24"
     filterUnits="objectBoundingBox"
     height="129.2%"
     width="129.2%"
     y="-14.6%"
     x="-14.6%"><feGaussianBlur
       id="feGaussianBlur1320"
       in="SourceGraphic"
       stdDeviation="0.840648649" /></filter><filter
     id="filter-25"
     filterUnits="objectBoundingBox"
     height="129.2%"
     width="129.2%"
     y="-14.6%"
     x="-14.6%"><feGaussianBlur
       id="feGaussianBlur1323"
       in="SourceGraphic"
       stdDeviation="0.840648649" /></filter><filter
     id="filter-26"
     filterUnits="objectBoundingBox"
     height="129.2%"
     width="129.2%"
     y="-14.6%"
     x="-14.6%"><feGaussianBlur
       id="feGaussianBlur1326"
       in="SourceGraphic"
       stdDeviation="0.840648649" /></filter><radialGradient
     gradientUnits="userSpaceOnUse"
     r="60.218193"
     fy="-2.4347755"
     fx="20.517139"
     cy="-2.4347755"
     cx="20.517139"
     gradientTransform="scale(0.97332853,1.0274023)"
     id="radialGradient2065"
     xlink:href="#radialGradient-5"
     inkscape:collect="always" /><linearGradient
     gradientUnits="userSpaceOnUse"
     gradientTransform="scale(0.97332853,1.0274023)"
     y2="50.216183"
     x2="49.25247"
     y1="-10.278403"
     x1="-0.17789949"
     id="linearGradient2067"
     xlink:href="#linearGradient-6"
     inkscape:collect="always" /><linearGradient
     inkscape:collect="always"
     xlink:href="#linearGradient-1"
     id="linearGradient1245"
     gradientUnits="userSpaceOnUse"
     x1="31.854546"
     y1="-3.5527137e-15"
     x2="31.854546"
     y2="63.709091" /><linearGradient
     inkscape:collect="always"
     xlink:href="#linearGradient-2"
     id="linearGradient1247"
     gradientUnits="userSpaceOnUse"
     x1="31.854546"
     y1="-3.5527137e-15"
     x2="31.854546"
     y2="146.19414" /><linearGradient
     inkscape:collect="always"
     xlink:href="#linearGradient-1"
     id="linearGradient1249"
     gradientUnits="userSpaceOnUse"
     x1="31.854546"
     y1="-3.5527137e-15"
     x2="31.854546"
     y2="63.709091" /><linearGradient
     inkscape:collect="always"
     xlink:href="#linearGradient-2"
     id="linearGradient1251"
     gradientUnits="userSpaceOnUse"
     x1="31.854546"
     y1="-3.5527137e-15"
     x2="31.854546"
     y2="146.19414" /></defs><sodipodi:namedview
   pagecolor="#ffffff"
   bordercolor="#666666"
   borderopacity="1"
   objecttolerance="10"
   gridtolerance="10"
   guidetolerance="10"
   inkscape:pageopacity="0"
   inkscape:pageshadow="2"
   inkscape:window-width="1920"
   inkscape:window-height="980"
   id="namedview70"
   showgrid="false"
   inkscape:zoom="1.0179736"
   inkscape:cx="149.50871"
   inkscape:cy="13.107561"
   inkscape:window-x="0"
   inkscape:window-y="23"
   inkscape:window-maximized="1"
   inkscape:current-layer="svg68"
   inkscape:document-rotation="0" /><text
   xml:space="preserve"
   style="font-style:normal;font-weight:normal;font-size:48px;line-height:1.25;font-family:sans-serif;letter-spacing:0px;word-spacing:0px;fill:#000000;fill-opacity:1;stroke:none"
   x="107.50391"
   y="38.634449"
   id="text938"><tspan
     sodipodi:role="line"
     id="tspan936"
     x="107.50391"
     y="38.634449"
     style="font-style:normal;font-variant:normal;font-weight:bold;font-stretch:normal;font-size:32px;font-family:Arial;-inkscape-font-specification:'Arial Bold';fill:#bb0e3d;fill-opacity:1"><tspan
       style="font-style:italic;font-variant:normal;font-weight:bold;font-stretch:normal;font-family:Arial;-inkscape-font-specification:'Arial Bold Italic'"
       id="tspan1253">CytoSig</tspan><tspan
       style="font-style:normal;font-variant:normal;font-weight:normal;font-stretch:normal;font-family:Arial;-inkscape-font-specification:Arial;fill:#000000"
       id="tspan864"> Database</tspan></tspan></text>
<g
   id="g1243"
   transform="matrix(0.49572038,0,0,0.49572038,-76.026131,-5.1945362)"><circle
     transform="rotate(158)"
     id="cell-border-copy"
     cx="-240.47231"
     cy="-199.19667"
     r="33.599998"
     style="fill:#22b6d6;fill-rule:evenodd;stroke:none;stroke-width:1" /><use
     transform="rotate(158,158.61933,89.058112)"
     xlink:href="#path-3"
     id="use1332"
     style="fill:url(#linearGradient1245);fill-rule:evenodd;stroke:none;stroke-width:1"
     x="0"
     y="0"
     width="100%"
     height="100%" /><use
     transform="rotate(158,158.61933,89.058112)"
     xlink:href="#path-3"
     id="use1334"
     style="fill:url(#linearGradient1247);fill-rule:evenodd;stroke:none;stroke-width:1"
     x="0"
     y="0"
     width="100%"
     height="100%" /><use
     transform="rotate(158,149.77146,80.81524)"
     height="100%"
     width="100%"
     y="0"
     x="0"
     style="fill:#000000;fill-opacity:1;fill-rule:evenodd;stroke:none;stroke-width:1;filter:url(#filter-8)"
     id="use1339"
     xlink:href="#path-7" /><use
     transform="rotate(158,149.77146,80.81524)"
     height="100%"
     width="100%"
     y="0"
     x="0"
     style="fill:#ff5555;fill-rule:evenodd;stroke:none;stroke-width:1"
     id="use1341"
     xlink:href="#path-7" /><circle
     transform="rotate(-88)"
     id="circle1350"
     cx="-28.391703"
     cy="209.45694"
     r="33.599998"
     style="fill:#22b6d6;fill-rule:evenodd;stroke:none;stroke-width:1" /><g
     id="g1370"
     transform="rotate(-88,122.07946,-57.607793)"
     style="fill:none;fill-rule:evenodd;stroke:none;stroke-width:1"><g
       id="g1358"><use
         xlink:href="#path-9"
         id="use1352"
         style="fill:url(#linearGradient1249);fill-rule:evenodd"
         x="0"
         y="0"
         width="100%"
         height="100%" /><use
         xlink:href="#path-9"
         id="use1354"
         style="fill:url(#linearGradient1251);fill-rule:evenodd"
         x="0"
         y="0"
         width="100%"
         height="100%" /><use
         xlink:href="#path-9"
         id="use1356"
         style="fill:#000000;fill-opacity:1;filter:url(#filter-10)"
         x="0"
         y="0"
         width="100%"
         height="100%" /></g><g
       id="g1368"
       transform="translate(13.963636,19.2)"><g
         id="g1366"><use
           xlink:href="#path-11"
           id="use1360"
           style="fill:#000000;fill-opacity:1;filter:url(#filter-12)"
           x="0"
           y="0"
           width="100%"
           height="100%" /><use
           xlink:href="#path-11"
           id="use1362"
           style="fill:url(#radialGradient2065);fill-rule:evenodd"
           x="0"
           y="0"
           width="100%"
           height="100%" /><use
           style="mix-blend-mode:overlay;fill:url(#linearGradient2067);fill-opacity:0.2;fill-rule:evenodd"
           xlink:href="#path-11"
           id="use1364"
           x="0"
           y="0"
           width="100%"
           height="100%" /></g></g></g><g
     id="g1389"
     transform="translate(239.64285,91.752896)"
     style="fill:#ff6d1d;fill-rule:evenodd;stroke:none;stroke-width:1"><g
       id="g1387"
       transform="translate(2.357143,2.357143)"><g
         id="g1385"
         transform="translate(-1.111479,-1.111479)"><rect
           id="rect1381"
           x="1.1114786"
           y="1.1114786"
           width="17.285715"
           height="17.285715"
           rx="7.776"
           style="filter:url(#filter-14)" /><path
           d="m 9.7543357,0.64429707 c -5.0313354,0 -9.11003863,4.07870323 -9.11003863,9.11003863 0,5.0313353 4.07870323,9.1100383 9.11003863,9.1100383 5.0313353,0 9.1100383,-4.078703 9.1100383,-9.1100383 0,-5.0313354 -4.078703,-9.11003863 -9.1100383,-9.11003863 z m 0,0.93436293 c 4.5153013,0 8.1756753,3.6603747 8.1756753,8.1756757 0,4.5153013 -3.660374,8.1756753 -8.1756753,8.1756753 -4.515301,0 -8.1756757,-3.660374 -8.1756757,-8.1756753 0,-4.515301 3.6603747,-8.1756757 8.1756757,-8.1756757 z"
           id="path1383"
           inkscape:connector-curvature="0"
           style="fill-rule:nonzero" /></g></g></g><g
     id="g1399"
     transform="translate(249.69492,44.366525)"
     style="fill:#ff6d1d;fill-rule:evenodd;stroke:none;stroke-width:1"><g
       id="g1397"
       transform="translate(2.357143,2.357143)"><g
         id="g1395"
         transform="translate(-1.111479,-1.111479)"><rect
           id="rect1391"
           x="1.1114786"
           y="1.1114786"
           width="17.285715"
           height="17.285715"
           rx="7.776"
           style="filter:url(#filter-15)" /><path
           d="m 9.7543357,0.64429707 c -5.0313354,0 -9.11003863,4.07870323 -9.11003863,9.11003863 0,5.0313353 4.07870323,9.1100383 9.11003863,9.1100383 5.0313353,0 9.1100383,-4.078703 9.1100383,-9.1100383 0,-5.0313354 -4.078703,-9.11003863 -9.1100383,-9.11003863 z m 0,0.93436293 c 4.5153013,0 8.1756753,3.6603747 8.1756753,8.1756757 0,4.5153013 -3.660374,8.1756753 -8.1756753,8.1756753 -4.515301,0 -8.1756757,-3.660374 -8.1756757,-8.1756753 0,-4.515301 3.6603747,-8.1756757 8.1756757,-8.1756757 z"
           id="path1393"
           inkscape:connector-curvature="0"
           style="fill-rule:nonzero" /></g></g></g><g
     id="g1426"
     transform="translate(295.42373,26.275424)"
     style="fill:#8bb843;fill-rule:evenodd;stroke:none;stroke-width:1"><g
       id="g1424"
       transform="translate(2.357143,2.357143)"><g
         id="g1422"
         transform="translate(-1.111479,-1.111479)"><rect
           id="rect1418"
           x="1.1114786"
           y="1.1114786"
           width="17.285715"
           height="17.285715"
           rx="7.776"
           style="filter:url(#filter-18)" /><path
           d="m 9.7543357,0.64429707 c -5.0313354,0 -9.11003863,4.07870323 -9.11003863,9.11003863 0,5.0313353 4.07870323,9.1100383 9.11003863,9.1100383 5.0313353,0 9.1100383,-4.078703 9.1100383,-9.1100383 0,-5.0313354 -4.078703,-9.11003863 -9.1100383,-9.11003863 z m 0,0.93436293 c 4.5153013,0 8.1756753,3.6603747 8.1756753,8.1756757 0,4.5153013 -3.660374,8.1756753 -8.1756753,8.1756753 -4.515301,0 -8.1756757,-3.660374 -8.1756757,-8.1756753 0,-4.515301 3.6603747,-8.1756757 8.1756757,-8.1756757 z"
           id="path1420"
           inkscape:connector-curvature="0"
           style="fill-rule:nonzero" /></g></g></g><g
     id="g1446"
     transform="translate(231,74)"
     style="fill:#8bb843;fill-rule:evenodd;stroke:none;stroke-width:1"><g
       id="g1444"
       transform="translate(2.357143,2.357143)"><g
         id="g1442"
         transform="translate(-1.111479,-1.111479)"><rect
           id="rect1438"
           x="1.1114786"
           y="1.1114786"
           width="17.285715"
           height="17.285715"
           rx="7.776"
           style="filter:url(#filter-20)" /><path
           d="m 9.7543357,0.64429707 c -5.0313354,0 -9.11003863,4.07870323 -9.11003863,9.11003863 0,5.0313353 4.07870323,9.1100383 9.11003863,9.1100383 5.0313353,0 9.1100383,-4.078703 9.1100383,-9.1100383 0,-5.0313354 -4.078703,-9.11003863 -9.1100383,-9.11003863 z m 0,0.93436293 c 4.5153013,0 8.1756753,3.6603747 8.1756753,8.1756757 0,4.5153013 -3.660374,8.1756753 -8.1756753,8.1756753 -4.515301,0 -8.1756757,-3.660374 -8.1756757,-8.1756753 0,-4.515301 3.6603747,-8.1756757 8.1756757,-8.1756757 z"
           id="path1440"
           inkscape:connector-curvature="0"
           style="fill-rule:nonzero" /></g></g></g><g
     id="Ctyokines/-Single-Cytokine-/-cytokine-purple"
     transform="translate(255.79661,9.9978814)"
     style="fill:#8169a4;fill-rule:evenodd;stroke:none;stroke-width:1"><g
       id="Cell-/-Mini-Blurred-Cell-/-Purple-Solid"
       transform="translate(2.357143,2.357143)"><g
         id="graphic-cytokine-red-blur"
         transform="translate(-1.111479,-1.111479)"><rect
           id="rect1448"
           x="1.1114786"
           y="1.1114786"
           width="17.285715"
           height="17.285715"
           rx="7.776"
           style="filter:url(#filter-21)" /><path
           d="m 9.7543357,0.64429707 c -5.0313354,0 -9.11003863,4.07870323 -9.11003863,9.11003863 0,5.0313353 4.07870323,9.1100383 9.11003863,9.1100383 5.0313353,0 9.1100383,-4.078703 9.1100383,-9.1100383 0,-5.0313354 -4.078703,-9.11003863 -9.1100383,-9.11003863 z m 0,0.93436293 c 4.5153013,0 8.1756753,3.6603747 8.1756753,8.1756757 0,4.5153013 -3.660374,8.1756753 -8.1756753,8.1756753 -4.515301,0 -8.1756757,-3.660374 -8.1756757,-8.1756753 0,-4.515301 3.6603747,-8.1756757 8.1756757,-8.1756757 z"
           id="path1450"
           inkscape:connector-curvature="0"
           style="fill-rule:nonzero" /></g></g></g><g
     id="g1463"
     transform="translate(207.89922,104.844)"
     style="fill:#8169a4;fill-rule:evenodd;stroke:none;stroke-width:1"><g
       id="g1461"
       transform="translate(2.357143,2.357143)"><g
         id="g1459"
         transform="translate(-1.111479,-1.111479)"><rect
           id="rect1455"
           x="1.1114786"
           y="1.1114786"
           width="17.285715"
           height="17.285715"
           rx="7.776"
           style="filter:url(#filter-22)" /><path
           d="m 9.7543357,0.64429707 c -5.0313354,0 -9.11003863,4.07870323 -9.11003863,9.11003863 0,5.0313353 4.07870323,9.1100383 9.11003863,9.1100383 5.0313353,0 9.1100383,-4.078703 9.1100383,-9.1100383 0,-5.0313354 -4.078703,-9.11003863 -9.1100383,-9.11003863 z m 0,0.93436293 c 4.5153013,0 8.1756753,3.6603747 8.1756753,8.1756757 0,4.5153013 -3.660374,8.1756753 -8.1756753,8.1756753 -4.515301,0 -8.1756757,-3.660374 -8.1756757,-8.1756753 0,-4.515301 3.6603747,-8.1756757 8.1756757,-8.1756757 z"
           id="path1457"
           inkscape:connector-curvature="0"
           style="fill-rule:nonzero" /></g></g></g><g
     id="Ctyokines/-Single-Cytokine-/-cytokine-blue"
     transform="translate(201.25636,83.091102)"
     style="fill:#22b6d6;fill-rule:evenodd;stroke:none;stroke-width:1"><g
       id="Cell-/-Mini-Blurred-Cell-/-Blue--Blur-Copy-2"
       transform="translate(2.357143,2.357143)"><g
         id="graphic-cytokine-blue-blur"
         transform="translate(-1.111479,-1.111479)"><rect
           id="rect1465"
           x="1.1114786"
           y="1.1114786"
           width="17.285715"
           height="17.285715"
           rx="7.776"
           style="filter:url(#filter-23)" /><path
           d="m 9.7543357,0.64429707 c -5.0313354,0 -9.11003863,4.07870323 -9.11003863,9.11003863 0,5.0313353 4.07870323,9.1100383 9.11003863,9.1100383 5.0313353,0 9.1100383,-4.078703 9.1100383,-9.1100383 0,-5.0313354 -4.078703,-9.11003863 -9.1100383,-9.11003863 z m 0,0.93436293 c 4.5153013,0 8.1756753,3.6603747 8.1756753,8.1756757 0,4.5153013 -3.660374,8.1756753 -8.1756753,8.1756753 -4.515301,0 -8.1756757,-3.660374 -8.1756757,-8.1756753 0,-4.515301 3.6603747,-8.1756757 8.1756757,-8.1756757 z"
           id="path1467"
           inkscape:connector-curvature="0"
           style="fill-rule:nonzero" /></g></g></g></g></svg>
